<?xml version="1.0" encoding="UTF-8"?>
<svg id="Group_1_xA0_Image" xmlns="http://www.w3.org/2000/svg" version="1.1" viewBox="0 0 2205 2696">
  <!-- Generator: Adobe Illustrator 30.2.1, SVG Export Plug-In . SVG Version: 2.1.1 Build 1)  -->
  <defs>
    <style>
      .st0 {
        fill: #cfcbe1;
      }

      .st1 {
        fill: #cbc7df;
      }

      .st2 {
        fill: #dad7e8;
      }

      .st3 {
        fill: #cecae0;
      }

      .st4 {
        fill: #b6b0d2;
      }

      .st5 {
        fill: #dedbea;
      }
    </style>
  </defs>
  <path class="st4" d="M605,1782c-.26-2.19-.59-4.53-1-7v-5c.33-6.7.66-13.37,1-20v-29c.31-6.31.64-12.64,1-19,.05-15.05.2-30.13.53-45.58l.98-46.01,1.04-44.81.96-42.18,1.04-39.82.96-38.17,1.06-34.8.88-28.17c.19-6.17.47-11.89.96-18.12,4.81-60.06,17.78-120.62,46.62-174.31,31.21-58.1,78.93-99.65,145.29-113.06-12.99,9.13-25.83,17.4-36.53,28.87-5.64,3.65-9.19,8.32-13.7,13.37-40.66,43.24-64.71,98.98-69.59,158.14-.46,5.62-1.13,10.59-1.17,16.23l-.75,110.96-.05,181.04.32,173.03c0,3.6-.86,6.12-.44,9.69,1.6,13.58,8.02,25.22,20.51,31.98,7.21,3.9,15.71,6.69,24.37,7.31,27.91,2,49.52-1.62,76.81-8.53l78.13-19.76c25.5-6.45,50.51-10.94,76.68-13.22l9.14-.79c11.06-.96,21.53-.49,32.55.17,42.72,2.56,82.67,17.73,114.91,46.08,19.92,17.52,38.25,39.29,51.84,62.74-49.71-36.8-107.73-57.24-169.06-52.83-34.78,2.5-73.94,16.38-105.15,31.74l-54.98,27.05c-51.79,25.48-107.42,46.43-164.48,25.06-35.36-2.08-55.05-39.49-63-69.9-3.54-13.56-8.36-40.78-7.68-53.38Z"/>
  <path class="st3" d="M604,1770v-20h1l-.03,18.95c0,.69-.57,1.16-.97,1.05Z"/>
  <path class="st5" d="M914,346v1c-.81,3.18-10.91,3.05-12,0v-1h12Z"/>
  <path class="st3" d="M605,1782h-1v-7c1.71,1.58,1.12,4.71,1,7Z"/>
  <path class="st4" d="M1422.87,2331.39c-5.75,4.98-10.45,10.17-17.29,13.95,7.36-11.58,14.49-21.57,20.59-33.18,6.42-12.23,12.56-23.94,18.32-36.62,54.4-119.77,77.36-265.94,30.47-391.53-31.9-85.45-96.14-147.62-177.58-186.4-34.29-16.33-69.71-28.05-107.65-34.85,49.11-44.74,44.04-132.99,22.02-189.39-4.97-12.73-11.83-23.15-20.74-33.42l-30.17-34.76-10.98-12.22-108.73-119.92-12-13.2-36.3-40.65-35.29-40.75c-39.83-46-54.77-105.96-21.37-160.6-.13-1.49,2.47-1.06,1.25.18-7.65,46.74,1.37,90.27,33.02,125.51,5.33,5.94,10.39,11.43,16.44,16.58l5.41,4.59,33.55,27.66c55.93,46.12,111.49,91.76,165.27,140.28,2.84,2.56,4.93,4.37,7.52,6.79l10.34,9.68c5.37,5.03,10.47,9.96,16.05,15.04,13.97,12.74,26.83,26.08,39.99,39.82,40.59,42.39,52.57,89.77,48.43,147.56-1.44,20.14-5.61,39.24-11.45,58.39-.23.74-.92,1.29-.92,1.66,0,.49,1.11.31,2.03.4,68.58,6.21,131.29,39.68,181.38,85.47,30.11,27.52,59.32,63.61,76.29,100.73,20.6,45.09,33.84,92.37,38.17,141.66.3,3.37.83,6.22.83,9.26v49.83c0,3.05-.57,5.87-.87,9.25-4.95,57.21-22.52,111.71-49.19,162.54-22.98,43.79-50.46,84.82-85.15,119.78l-33.9,34.16-7.78,6.74Z"/>
  <path class="st4" d="M902,347h12c22.32,0,51.56,6.61,65.96,25.89,2.47,3.3,5.17,5.48,8.06,8.05,6.89,6.14,14.64,9.06,23.77,10.48,12.76,1.97,24.72,6.04,36.58,11.31,21.07,9.36,38.51,24.97,49.58,45.24,7.32,13.41,10.56,27.96,12.25,43.02,3,26.71-4.05,57.87-13.05,83.14-22.81,63.98-72.37,127.59-122.08,172.81l-10.59,9.63c-24.62,22.4-51.16,41.44-79.28,59.66-86.7,56.16-165.1,130.1-211.32,223.58-13.71,27.73-23.43,55.58-29.21,86.64-4.67-62.52,9.65-122.22,41.33-176.44,21.32-36.49,50.71-70.81,81.47-99.43l10.42-9.7,7.47-6.66c29.32-26.14,60.38-49.41,92.41-72.31l32.17-23c22.85-16.34,42.84-32.24,62.1-52.99,25.42-27.39,47.19-57.81,62.76-91.97,13.01-28.55,22.23-60.74,18.95-91.77-2.67-25.24-14.97-45.28-38.42-55.4-10.03-4.33-20.51-5.85-31.35-7.04-28.59-3.13-61.64,5.36-87.91,17.49-31.21,14.41-58.58,34.75-83.42,58.32-3.69,3.5-7.24,5.82-10.04,10.17-1.58,2.45-4.22,4.45-6.79,6.47,3.34-20.3,13.5-34.51,25.81-49.57,15.42-18.85,53.27-45.73,75.2-56.77l29.04-14.62c-101.15-9.15-174.37,34.96-221.04,121.62-34.32,63.71-52.14,148.9-57.42,220.35l-1.17,15.77-.94,15.04-.73,25.47c-.31,10.68-.08,21.2-.54,31.54l1,8c.13,1.57.58,3.7-.8,5.1-6.55-34.25-12.14-70.85-13.94-105l-1-19.03c-.83-15.73-.61-31.11.24-46.54l.94-17.22c2.21-40.4,10.24-79.87,23.55-118.29,15.19-43.84,37.85-83.8,68.9-118.04,24.83-27.38,58.47-52.75,92.98-65.94,19.67-7.52,39.34-11.92,59.98-15.27,3.91-.63,7.66-1.27,11.16-.77l5-1c3.23-.54,6.73,0,10,0Z"/>
  <path class="st4" d="M1129.11,996.15c-33.26,27.41-83.35,17.5-120.68.55,9.29-1.66,18-.04,27.13-1.03,21.38-2.31,41.84-6.72,60.17-17.82,18.4-11.15,30.27-28.83,32.81-50.28,2.55-21.53,5.54-42.23,10.55-63.35,4.16-17.53,10.15-33.37,19.32-48.7,2.64-4.42,1.07-10.68,1.54-15.44,1.05-10.74-1.54-19.89-5.29-29.77-7.47-19.68-13.78-39.19-15.28-60.42-.7-9.85-.17-19.67.19-29.43l.95-25.88.94-31c.34-11.15.45-22.22.33-33.47-.04-4.01-1.52-7.9-.79-12.1.82-4.79-2.12-18.5-1.41-25.88,24.47,30.3,38.36,90.57,40.05,128.23l.86,19.13c.41,9.08.62,18.26.26,27.55-.21,5.36-1.26,10.45-.81,16.1,1.59,19.67,6.43,38.24,11.6,57.24,3.11,11.42.65,17.99-4.55,27.57-3.61,6.66-5.83,13.04-7.89,20.28l-9.51,33.39c-4.42,15.53-7.58,30.66-8.98,46.88-2.32,26.77-10.02,49.98-31.49,67.67Z"/>
  <path class="st0" d="M605,1721l-.02-17.05c0-1.03.25-2.02,1.02-1.95l-.06,17.95c0,.69-.5,1.16-.94,1.05Z"/>
  <path class="st2" d="M645,849c-1.76-1.92-1.12-5.37-1-8,2,1.95.78,5.33,1,8Z"/>
  <path class="st1" d="M892,347c-1.73.29-2.87,1.3-5,1,.95-1.73,3.34-.87,5-1Z"/>
</svg>